<svg width="30" height="30" viewBox="0 0 30 30" fill="none" xmlns="http://www.w3.org/2000/svg">
<path d="M7.50966 0.0057373C5.61272 0.0057373 4.06946 1.53365 4.06946 3.41171C4.06946 5.28977 5.61272 6.81768 7.50966 6.81768C9.40659 6.81768 10.9499 5.28977 10.9499 3.41171C10.9499 1.53365 9.40659 0.0057373 7.50966 0.0057373ZM7.50966 6.08298C6.02194 6.08298 4.81162 4.88462 4.81162 3.41178C4.81162 1.93887 6.02202 0.740588 7.50966 0.740588C8.99737 0.740588 10.2077 1.93895 10.2077 3.41178C10.2077 4.88462 8.9973 6.08298 7.50966 6.08298Z" fill="black"/>
<path d="M13.3741 15.6165L12.0249 9.2719C11.8246 8.33041 10.974 7.64697 10.0021 7.64697H5.01708C4.04524 7.64697 3.19454 8.33041 2.99426 9.2719L1.64494 15.6165C1.51597 16.2229 1.66823 16.8466 2.06253 17.3278C2.36087 17.6918 2.76858 17.9381 3.22039 18.0365L2.76248 20.1911C2.73941 20.2994 2.767 20.4123 2.8374 20.4982C2.9078 20.5841 3.01371 20.6341 3.12557 20.6341H4.6922V20.8335C4.6922 20.8412 4.69243 20.8489 4.69296 20.8566L5.19414 28.7267C5.23868 29.4263 5.82813 29.9742 6.53607 29.9742C6.91868 29.9742 7.26444 29.8151 7.50956 29.5603C7.75469 29.8151 8.10044 29.9742 8.48306 29.9742C9.19099 29.9742 9.78044 29.4263 9.82499 28.7267L10.3262 20.8566C10.3267 20.8489 10.3269 20.8412 10.3269 20.8335V20.6341H11.8935C12.0053 20.6341 12.1112 20.5841 12.1816 20.4982C12.2521 20.4121 12.2796 20.2994 12.2566 20.191L11.7981 18.0366C12.2502 17.9382 12.6581 17.6919 12.9565 17.3276C13.351 16.8465 13.5031 16.2228 13.3741 15.6165ZM7.13848 28.6429C7.13848 28.9718 6.86818 29.2394 6.53607 29.2394C6.21889 29.2394 5.95476 28.9939 5.93486 28.6805L5.43444 20.8218V20.6341H7.13856V28.6429H7.13848ZM9.58476 20.8218L9.08434 28.6805C9.06444 28.9939 8.80032 29.2394 8.48313 29.2394C8.15095 29.2394 7.88072 28.9718 7.88072 28.6429V20.6341H9.58484V20.8218H9.58476ZM12.3803 16.8647C12.1906 17.0962 11.932 17.2535 11.6453 17.3176L10.1759 10.4119C10.1336 10.2133 9.93602 10.0864 9.73627 10.1281C9.53569 10.17 9.4074 10.3647 9.44961 10.5633L11.4361 19.8993H3.58296L4.03024 17.7948C4.03069 17.7926 4.03122 17.7906 4.0316 17.7884L5.56725 10.5633C5.60954 10.3647 5.4811 10.17 5.28052 10.1282C5.08047 10.0865 4.88321 10.2135 4.841 10.412L3.37326 17.3176C3.08675 17.2534 2.82843 17.0961 2.63894 16.8648C2.38612 16.5563 2.28858 16.1566 2.3712 15.7679L3.72052 9.42332C3.84889 8.81973 4.39416 8.38175 5.01708 8.38175H10.0021C10.625 8.38175 11.1703 8.81973 11.2987 9.42332L12.6479 15.7679C12.7305 16.1565 12.633 16.5563 12.3803 16.8647Z" fill="black"/>
<path d="M25.921 7.64685H19.275C18.0291 7.64685 17.0156 8.65036 17.0156 9.88379V17.2133C17.0156 18.0836 17.7307 18.7916 18.6098 18.7916C18.8031 18.7916 18.9542 18.7915 19.0713 18.7913V28.3957C19.0713 29.266 19.7864 29.9741 20.6655 29.9741C21.5446 29.9741 22.2597 29.2661 22.2597 28.3957V19.6572C22.2597 19.4917 22.3957 19.3571 22.5629 19.3571H22.6331C22.8002 19.3571 22.9362 19.4917 22.9362 19.6572V28.3958C22.9362 29.2661 23.6514 29.9742 24.5305 29.9742C25.4095 29.9742 26.1247 29.2662 26.1247 28.3958V18.7914C26.2418 18.7916 26.3929 18.7917 26.5862 18.7917C27.4652 18.7917 28.1804 18.0836 28.1804 17.2133V9.88387C28.1804 8.65036 27.1668 7.64685 25.921 7.64685ZM27.4382 17.2133C27.4382 17.6785 27.056 18.0569 26.5862 18.0569C26.3918 18.0569 26.2415 18.0568 26.1247 18.0566V10.4876C26.1247 10.2847 25.9586 10.1202 25.7536 10.1202C25.5487 10.1202 25.3825 10.2847 25.3825 10.4876V18.4229V28.3959C25.3825 28.861 25.0003 29.2395 24.5304 29.2395C24.0606 29.2395 23.6783 28.861 23.6783 28.3959V19.6572C23.6783 19.0866 23.2094 18.6223 22.6331 18.6223H22.5629C21.9865 18.6223 21.5176 19.0866 21.5176 19.6572V28.3958C21.5176 28.861 21.1353 29.2394 20.6655 29.2394C20.1957 29.2394 19.8135 28.861 19.8135 28.3958V18.4228V10.4876C19.8135 10.2847 19.6473 10.1202 19.4424 10.1202C19.2374 10.1202 19.0713 10.2847 19.0713 10.4876V18.0566C18.9544 18.0568 18.8042 18.0569 18.6098 18.0569C18.14 18.0569 17.7578 17.6785 17.7578 17.2133V9.88387C17.7578 9.05558 18.4384 8.3817 19.275 8.3817H25.921C26.7576 8.3817 27.4382 9.05558 27.4382 9.88387V17.2133Z" fill="black"/>
<path d="M22.598 0.00598145C20.7011 0.00598145 19.1578 1.53389 19.1578 3.41195C19.1578 5.29001 20.7011 6.81792 22.598 6.81792C24.495 6.81792 26.0382 5.29001 26.0382 3.41195C26.0382 1.53389 24.495 0.00598145 22.598 0.00598145ZM22.598 6.08322C21.1103 6.08322 19.9 4.88486 19.9 3.41203C19.9 1.93912 21.1104 0.740832 22.598 0.740832C24.0858 0.740832 25.2961 1.93919 25.2961 3.41203C25.2961 4.88486 24.0857 6.08322 22.598 6.08322Z" fill="black"/>
</svg>
