<svg width="12" height="30" viewBox="0 0 12 30" fill="none" xmlns="http://www.w3.org/2000/svg">
<path d="M8.92095 7.64685H2.27497C1.02914 7.64685 0.015625 8.65036 0.015625 9.88379V17.2133C0.015625 18.0836 0.730726 18.7916 1.60985 18.7916C1.80311 18.7916 1.95417 18.7915 2.0713 18.7913V28.3957C2.0713 29.266 2.7864 29.9741 3.66552 29.9741C4.54464 29.9741 5.25975 29.2661 5.25975 28.3957V19.6572C5.25975 19.4917 5.39573 19.3571 5.56291 19.3571H5.63309C5.8002 19.3571 5.93618 19.4917 5.93618 19.6572V28.3958C5.93618 29.2661 6.65135 29.9742 7.53047 29.9742C8.40952 29.9742 9.12469 29.2662 9.12469 28.3958V18.7914C9.24183 18.7916 9.39289 18.7917 9.58615 18.7917C10.4652 18.7917 11.1804 18.0836 11.1804 17.2133V9.88387C11.1804 8.65036 10.1668 7.64685 8.92095 7.64685ZM10.4382 17.2133C10.4382 17.6785 10.056 18.0569 9.58615 18.0569C9.39176 18.0569 9.24153 18.0568 9.12469 18.0566V10.4876C9.12469 10.2847 8.95856 10.1202 8.75362 10.1202C8.54867 10.1202 8.38253 10.2847 8.38253 10.4876V18.4229V28.3959C8.38253 28.861 8.0003 29.2395 7.5304 29.2395C7.06057 29.2395 6.67834 28.861 6.67834 28.3959V19.6572C6.67834 19.0866 6.20942 18.6223 5.63309 18.6223H5.56291C4.9865 18.6223 4.51758 19.0866 4.51758 19.6572V28.3958C4.51758 28.861 4.13535 29.2394 3.66552 29.2394C3.1957 29.2394 2.81346 28.861 2.81346 28.3958V18.4228V10.4876C2.81346 10.2847 2.64733 10.1202 2.44238 10.1202C2.23743 10.1202 2.0713 10.2847 2.0713 10.4876V18.0566C1.95439 18.0568 1.80424 18.0569 1.60985 18.0569C1.14002 18.0569 0.757786 17.6785 0.757786 17.2133V9.88387C0.757786 9.05558 1.43836 8.3817 2.27497 8.3817H8.92095C9.75756 8.3817 10.4382 9.05558 10.4382 9.88387V17.2133Z" fill="black"/>
<path d="M5.59804 0.00592041C3.7011 0.00592041 2.15784 1.53383 2.15784 3.41189C2.15784 5.28995 3.7011 6.81786 5.59804 6.81786C7.49497 6.81786 9.03824 5.28995 9.03824 3.41189C9.03824 1.53383 7.49497 0.00592041 5.59804 0.00592041ZM5.59804 6.08316C4.11032 6.08316 2.9 4.8848 2.9 3.41197C2.9 1.93905 4.1104 0.740771 5.59804 0.740771C7.08575 0.740771 8.29608 1.93913 8.29608 3.41197C8.29608 4.8848 7.08568 6.08316 5.59804 6.08316Z" fill="black"/>
</svg>
