<svg width="24" height="24" viewBox="0 0 24 24" fill="none" xmlns="http://www.w3.org/2000/svg">
<g clip-path="url(#clip0_7_193)">
<path d="M12 0C5.38293 0 0 5.38293 0 12C0 18.6171 5.38293 24 12 24C18.6171 24 24 18.6171 24 12C24 5.38293 18.6171 0 12 0Z" fill="#49D5FF"/>
<path d="M17.2499 12.9999H12.9999V17.2499C12.9999 17.802 12.552 18.2499 11.9999 18.2499C11.4479 18.2499 11 17.802 11 17.2499V12.9999H6.74994C6.19788 12.9999 5.75 12.552 5.75 11.9999C5.75 11.4479 6.19788 11 6.74994 11H11V6.74994C11 6.19788 11.4479 5.75 11.9999 5.75C12.552 5.75 12.9999 6.19788 12.9999 6.74994V11H17.2499C17.802 11 18.2499 11.4479 18.2499 11.9999C18.2499 12.552 17.802 12.9999 17.2499 12.9999Z" fill="#FAFAFA"/>
</g>
<defs>
<clipPath id="clip0_7_193">
<rect width="24" height="24" fill="white"/>
</clipPath>
</defs>
</svg>
