<svg width="30" height="30" viewBox="0 0 30 30" fill="none" xmlns="http://www.w3.org/2000/svg">
<path d="M10.921 7.64685H4.27497C3.02914 7.64685 2.01562 8.65036 2.01562 9.88379V17.2133C2.01562 18.0836 2.73073 18.7916 3.60985 18.7916C3.80311 18.7916 3.95417 18.7915 4.0713 18.7913V28.3957C4.0713 29.266 4.7864 29.9741 5.66552 29.9741C6.54464 29.9741 7.25975 29.2661 7.25975 28.3957V19.6572C7.25975 19.4917 7.39573 19.3571 7.56291 19.3571H7.63309C7.8002 19.3571 7.93618 19.4917 7.93618 19.6572V28.3958C7.93618 29.2661 8.65135 29.9742 9.53047 29.9742C10.4095 29.9742 11.1247 29.2662 11.1247 28.3958V18.7914C11.2418 18.7916 11.3929 18.7917 11.5862 18.7917C12.4652 18.7917 13.1804 18.0836 13.1804 17.2133V9.88387C13.1804 8.65036 12.1668 7.64685 10.921 7.64685ZM12.4382 17.2133C12.4382 17.6785 12.056 18.0569 11.5862 18.0569C11.3918 18.0569 11.2415 18.0568 11.1247 18.0566V10.4876C11.1247 10.2847 10.9586 10.1202 10.7536 10.1202C10.5487 10.1202 10.3825 10.2847 10.3825 10.4876V18.4229V28.3959C10.3825 28.861 10.0003 29.2395 9.5304 29.2395C9.06057 29.2395 8.67834 28.861 8.67834 28.3959V19.6572C8.67834 19.0866 8.20942 18.6223 7.63309 18.6223H7.56291C6.9865 18.6223 6.51758 19.0866 6.51758 19.6572V28.3958C6.51758 28.861 6.13535 29.2394 5.66552 29.2394C5.1957 29.2394 4.81346 28.861 4.81346 28.3958V18.4228V10.4876C4.81346 10.2847 4.64733 10.1202 4.44238 10.1202C4.23743 10.1202 4.0713 10.2847 4.0713 10.4876V18.0566C3.95439 18.0568 3.80424 18.0569 3.60985 18.0569C3.14002 18.0569 2.75779 17.6785 2.75779 17.2133V9.88387C2.75779 9.05558 3.43836 8.3817 4.27497 8.3817H10.921C11.7576 8.3817 12.4382 9.05558 12.4382 9.88387V17.2133Z" fill="black"/>
<path d="M7.59804 0.00598145C5.7011 0.00598145 4.15784 1.53389 4.15784 3.41195C4.15784 5.29001 5.7011 6.81792 7.59804 6.81792C9.49497 6.81792 11.0382 5.29001 11.0382 3.41195C11.0382 1.53389 9.49497 0.00598145 7.59804 0.00598145ZM7.59804 6.08322C6.11032 6.08322 4.9 4.88486 4.9 3.41203C4.9 1.93912 6.1104 0.740832 7.59804 0.740832C9.08575 0.740832 10.2961 1.93919 10.2961 3.41203C10.2961 4.88486 9.08568 6.08322 7.59804 6.08322Z" fill="black"/>
<path d="M25.921 7.64685H19.275C18.0291 7.64685 17.0156 8.65036 17.0156 9.88379V17.2133C17.0156 18.0836 17.7307 18.7916 18.6098 18.7916C18.8031 18.7916 18.9542 18.7915 19.0713 18.7913V28.3957C19.0713 29.266 19.7864 29.9741 20.6655 29.9741C21.5446 29.9741 22.2597 29.2661 22.2597 28.3957V19.6572C22.2597 19.4917 22.3957 19.3571 22.5629 19.3571H22.6331C22.8002 19.3571 22.9362 19.4917 22.9362 19.6572V28.3958C22.9362 29.2661 23.6514 29.9742 24.5305 29.9742C25.4095 29.9742 26.1247 29.2662 26.1247 28.3958V18.7914C26.2418 18.7916 26.3929 18.7917 26.5862 18.7917C27.4652 18.7917 28.1804 18.0836 28.1804 17.2133V9.88387C28.1804 8.65036 27.1668 7.64685 25.921 7.64685ZM27.4382 17.2133C27.4382 17.6785 27.056 18.0569 26.5862 18.0569C26.3918 18.0569 26.2415 18.0568 26.1247 18.0566V10.4876C26.1247 10.2847 25.9586 10.1202 25.7536 10.1202C25.5487 10.1202 25.3825 10.2847 25.3825 10.4876V18.4229V28.3959C25.3825 28.861 25.0003 29.2395 24.5304 29.2395C24.0606 29.2395 23.6783 28.861 23.6783 28.3959V19.6572C23.6783 19.0866 23.2094 18.6223 22.6331 18.6223H22.5629C21.9865 18.6223 21.5176 19.0866 21.5176 19.6572V28.3958C21.5176 28.861 21.1353 29.2394 20.6655 29.2394C20.1957 29.2394 19.8135 28.861 19.8135 28.3958V18.4228V10.4876C19.8135 10.2847 19.6473 10.1202 19.4424 10.1202C19.2374 10.1202 19.0713 10.2847 19.0713 10.4876V18.0566C18.9544 18.0568 18.8042 18.0569 18.6098 18.0569C18.14 18.0569 17.7578 17.6785 17.7578 17.2133V9.88387C17.7578 9.05558 18.4384 8.3817 19.275 8.3817H25.921C26.7576 8.3817 27.4382 9.05558 27.4382 9.88387V17.2133Z" fill="black"/>
<path d="M22.598 0.00598145C20.7011 0.00598145 19.1578 1.53389 19.1578 3.41195C19.1578 5.29001 20.7011 6.81792 22.598 6.81792C24.495 6.81792 26.0382 5.29001 26.0382 3.41195C26.0382 1.53389 24.495 0.00598145 22.598 0.00598145ZM22.598 6.08322C21.1103 6.08322 19.9 4.88486 19.9 3.41203C19.9 1.93912 21.1104 0.740832 22.598 0.740832C24.0858 0.740832 25.2961 1.93919 25.2961 3.41203C25.2961 4.88486 24.0857 6.08322 22.598 6.08322Z" fill="black"/>
</svg>
